<svg width="801" height="800" viewBox="0 0 801 800" fill="none" xmlns="http://www.w3.org/2000/svg">
<g clip-path="url(#clip0_1_25)">
<path d="M258.909 359.96C243.25 359.96 225.77 365.992 222.107 385.848C221.717 387.957 223.114 388.963 224.463 389.271L240.511 391.195C241.997 391.12 243.004 389.504 243.291 387.984C244.661 381.151 250.282 377.926 256.56 377.926C259.949 377.926 263.756 379.09 265.762 382.205C268.063 385.677 267.898 390.394 267.898 394.399V396.755C258.361 397.85 245.804 398.514 236.876 402.533C226.571 407.114 219.334 416.432 219.334 430.132C219.334 447.687 230.091 456.451 243.942 456.451C255.636 456.451 262.099 453.706 271.116 444.257C274.108 448.708 275.067 450.727 280.531 455.383C281.135 455.728 281.832 455.872 282.523 455.796C283.215 455.72 283.864 455.427 284.378 454.959V455.171C287.665 452.172 293.642 446.722 297.004 443.833C298.346 442.71 298.051 440.861 297.004 439.341C293.998 435.083 290.801 431.646 290.801 423.724V397.405C290.801 386.259 291.746 375.982 283.742 368.306C277.422 362.096 266.906 359.96 258.909 359.96ZM474.581 359.96C458.915 359.96 441.449 365.992 437.78 385.848C437.389 387.957 438.779 388.963 440.135 389.271L456.184 391.195C457.669 391.12 458.683 389.504 458.963 387.984C460.34 381.151 465.954 377.926 472.232 377.926C475.628 377.926 479.428 379.09 481.434 382.205C483.728 385.677 483.358 390.394 483.358 394.399V396.755C473.821 397.85 461.483 398.514 452.548 402.533C442.237 407.114 435.007 416.432 435.007 430.132C435.007 447.687 445.77 456.451 459.614 456.451C471.294 456.451 477.758 453.706 486.789 444.257C489.774 448.708 490.739 450.727 496.203 455.383C497.435 456.04 498.962 455.972 500.051 454.959V455.171C503.337 452.172 509.314 446.722 512.676 443.833C514.011 442.71 513.703 440.861 512.676 439.341C509.67 435.083 506.473 431.646 506.473 423.724V397.405C506.473 386.259 507.192 375.982 499.202 368.306C492.875 362.096 482.578 359.96 474.581 359.96ZM353.263 360.816C343.144 360.816 335.64 365.924 331.655 376.865H331.443V365.527C331.389 364.749 331.055 364.017 330.504 363.466C329.953 362.915 329.222 362.582 328.444 362.528H313.039C312.191 362.54 311.382 362.882 310.782 363.482C310.182 364.081 309.84 364.891 309.828 365.739V452.391C309.901 453.162 310.24 453.883 310.788 454.43C311.335 454.978 312.056 455.317 312.827 455.39H329.3C330.149 455.381 330.96 455.04 331.561 454.44C332.161 453.839 332.502 453.028 332.511 452.179V406.176C332.511 396.145 332.025 382.424 343.849 382.424C355.523 382.424 353.907 396.522 353.907 406.176V452.179C353.907 453.815 355.242 455.28 356.906 455.39H373.379C374.228 455.381 375.04 455.04 375.64 454.44C376.24 453.839 376.581 453.028 376.59 452.179V406.176C376.59 401.253 376.392 394.084 378.09 389.702C379.781 385.321 383.937 382.431 387.935 382.431C392.701 382.431 396.336 384.095 397.562 389.922C398.329 393.386 397.986 402.54 397.986 406.183V452.186C397.986 453.822 399.321 455.287 400.985 455.397H417.458C418.307 455.388 419.119 455.047 419.719 454.446C420.319 453.846 420.661 453.035 420.67 452.186V397.412C420.67 388.107 421.608 377.543 416.39 370.237C411.783 363.678 404.251 360.823 397.35 360.823C387.668 360.823 378.665 365.931 374.673 376.872C370.059 365.931 363.554 360.816 353.263 360.816ZM633.343 360.816C609.537 360.816 596.329 381.747 596.329 408.743C596.329 435.555 609.393 457.095 633.343 457.095C656.382 457.095 671 436.048 671 409.592C671 382.253 657.758 360.816 633.343 360.816ZM727.266 360.816C715.894 360.816 709.396 366.506 704.802 378.357H704.59V365.088C704.296 363.746 703.029 362.815 701.591 362.733H686.398C685.613 362.715 684.85 362.99 684.257 363.504C683.663 364.018 683.282 364.734 683.187 365.513V452.165C683.203 452.976 683.517 453.753 684.071 454.346C684.625 454.938 685.378 455.305 686.186 455.376H702.447C703.295 455.364 704.104 455.022 704.704 454.422C705.303 453.823 705.646 453.013 705.658 452.165V405.525C705.658 399.678 706.151 394.345 708.438 389.052C710.287 384.855 713.854 382.205 717.852 382.205C729.204 382.205 728.122 396.043 728.122 405.525V452.597C728.227 453.334 728.583 454.012 729.129 454.518C729.675 455.024 730.378 455.327 731.121 455.376H747.594C749.21 455.376 750.614 454.144 750.805 452.597V398.035C750.805 389.648 750.826 377.995 746.526 371.072C741.918 363.603 734.627 360.816 727.266 360.816ZM529.567 362.315C527.896 362.315 526.575 363.644 526.568 365.527V377.933C526.575 379.788 527.855 381.13 529.567 381.144H557.81L525.5 428.859C523.528 431.933 523.364 435.418 523.364 437.417V450.043C523.364 451.864 525.342 453.843 527.212 452.822C545.622 442.771 567.69 443.662 584.341 452.61C586.361 453.713 588.408 451.645 588.408 449.83V436.561C588.361 435.583 588.06 434.634 587.534 433.808C587.008 432.982 586.275 432.307 585.409 431.851C575.96 426.415 564.992 424.751 554.599 425.004L582.629 383.924C585.224 380.233 586.676 378.008 586.696 376.221V365.527C586.696 363.685 585.436 362.315 583.697 362.315H529.567ZM633.343 378.576C638.56 378.576 642.408 380.904 644.257 386.923C646.393 393.858 646.612 402.52 646.612 409.818C646.612 420.937 646.091 439.341 633.343 439.341C620.45 439.341 620.505 416.555 620.505 405.963C620.505 395.399 621.21 378.576 633.343 378.576ZM267.679 410.243V413.878C267.679 420.458 267.919 425.997 264.68 431.851C262.065 436.609 257.957 439.554 253.342 439.554C247.043 439.554 243.284 434.446 243.284 427.147C243.291 412.755 255.793 410.243 267.679 410.243ZM483.351 410.243V413.878C483.351 420.458 483.591 425.997 480.353 431.851C477.737 436.609 473.65 439.554 469.014 439.554C462.709 439.554 458.956 434.446 458.956 427.147C458.963 412.755 471.452 410.243 483.351 410.243Z" fill="#201C1D"/>
<path d="M590.119 458.17V470.576H598.465V458.17H590.119ZM348.128 460.306V548.67H355.831V540.755C357.474 543.891 359.343 546.239 361.609 547.814C363.869 549.389 366.464 550.17 369.312 550.17C374.967 550.17 379.849 547.28 384.074 541.399C388.298 535.517 390.496 526.993 390.496 516.148C390.496 509.048 389.585 503.167 387.716 498.175C385.847 493.198 383.348 489.494 380.226 487.049C377.104 484.605 373.557 483.202 369.743 483.202C367.092 483.174 364.49 483.916 362.253 485.338C360.028 486.762 358.227 489.083 356.474 491.972V460.306H348.128ZM427.297 481.065C421.491 481.065 416.883 482.784 413.604 486.2C410.324 489.61 408.681 494.013 408.681 499.469C408.681 502.639 409.393 505.317 410.605 507.816C411.817 510.315 413.563 512.321 415.74 513.806C417.931 515.292 422.299 517.244 428.79 519.366C433.281 520.811 435.965 522.043 437.136 523.002C438.834 524.405 439.703 526.247 439.703 528.78C439.703 531.711 438.69 534.155 436.704 536.052C434.726 537.962 431.973 538.831 428.358 538.831C424.743 538.831 421.765 537.818 419.588 535.62C417.41 533.422 416.233 530.081 415.74 525.562L407.394 527.274C409.276 541.002 416.123 547.821 427.934 547.814C434.233 547.814 439.053 546.027 442.695 542.255C446.338 538.482 448.255 533.388 448.255 527.274C448.255 523.974 447.673 521.112 446.543 518.716C445.414 516.319 443.859 514.546 441.833 513.156C439.799 511.773 435.267 509.924 428.351 507.597C423.326 505.837 420.382 504.55 419.369 503.749C417.664 502.393 416.801 500.544 416.801 498.189C416.801 495.779 417.595 493.739 419.369 492.198C421.142 490.658 423.874 489.843 427.502 489.843C433.884 489.843 437.451 493.348 438.197 500.325L446.331 499.038C445.77 494.622 444.804 491.137 443.332 488.768C441.86 486.399 439.683 484.4 436.91 482.989C434.144 481.586 430.96 481.065 427.297 481.065ZM478.435 481.065C471.746 481.065 466.104 483.818 461.743 489.624C457.382 495.43 455.321 503.838 455.321 514.875C455.321 525.508 457.423 533.84 461.743 539.482C466.063 545.117 471.664 547.828 478.648 547.828C484.2 547.828 488.801 546.164 492.553 542.693C496.312 539.222 499.037 534.114 500.468 527.288L491.91 525.788C489.452 534.532 484.919 538.824 478.641 538.838C474.642 538.838 471.376 537.14 468.583 533.491C465.789 529.835 464.208 524.412 463.872 517.23H500.674V514.231C500.674 503.434 498.524 495.327 494.251 489.624C489.993 483.921 484.81 481.065 478.435 481.065ZM529.142 481.065C527.143 481.065 525.397 481.743 523.795 483.202C522.193 484.66 520.372 487.686 518.448 492.184V482.339H510.957V546.315H519.304V512.944C519.304 508.288 519.742 503.81 520.803 499.675C521.405 497.306 522.542 495.437 524.014 494.115C525.486 492.794 527.164 492.191 528.937 492.191C530.902 492.191 532.853 492.979 534.928 494.547L537.708 484.489C534.791 482.161 531.936 481.065 529.142 481.065ZM631.412 481.065C624.805 481.065 619.362 483.845 615.151 489.412C610.954 494.971 608.729 503.324 608.729 514.443C608.729 525.473 610.974 533.833 615.151 539.475C619.321 545.11 624.538 547.821 630.981 547.821C636.301 547.821 640.874 545.842 644.674 541.83C648.474 537.818 650.788 531.916 651.733 524.289L643.599 523.002C642.997 528.459 641.573 532.382 639.32 534.983C637.067 537.572 634.356 538.831 631.186 538.831C627.146 538.831 623.709 536.948 621.128 533.053C618.547 529.157 617.28 522.926 617.28 514.224C617.28 505.789 618.643 499.702 621.347 495.82C624.052 491.938 627.496 489.829 631.617 489.829C634.37 489.829 636.718 490.897 638.676 493.04C640.648 495.177 641.956 498.572 642.743 502.886L650.877 501.174C649.898 494.437 647.735 489.35 644.243 485.981C640.751 482.606 636.513 481.065 631.412 481.065ZM679.127 481.065C672.438 481.065 666.796 483.818 662.435 489.624C658.073 495.43 656.012 503.838 656.012 514.875C656.012 525.508 658.114 533.84 662.435 539.482C666.762 545.117 672.355 547.828 679.339 547.828C684.878 547.828 689.486 546.164 693.245 542.693C696.997 539.222 699.722 534.114 701.16 527.288L692.601 525.788C690.143 534.532 685.809 538.824 679.551 538.838C675.553 538.838 672.075 537.14 669.281 533.491C666.488 529.835 664.913 524.412 664.571 517.23H701.372V514.231C701.372 503.434 699.222 495.327 694.95 489.624C690.705 483.921 685.508 481.065 679.127 481.065ZM728.553 481.065C722.734 481.065 718.14 482.784 714.86 486.2C711.574 489.61 709.937 494.013 709.937 499.469C709.937 502.639 710.437 505.317 711.649 507.816C712.854 510.308 714.593 512.321 716.784 513.806C718.961 515.292 723.35 517.244 729.834 519.366C734.312 520.811 737.221 522.043 738.392 523.002C740.09 524.405 740.96 526.247 740.96 528.78C740.96 531.711 739.946 534.155 737.961 536.052C735.989 537.962 733.23 538.831 729.615 538.831C725.993 538.831 723.021 537.818 720.844 535.62C718.667 533.422 717.263 530.081 716.777 525.562L708.431 527.274C710.314 541.002 717.147 547.821 728.971 547.814C735.277 547.814 740.302 546.027 743.952 542.255C747.601 538.482 749.511 533.388 749.511 527.274C749.511 523.974 748.929 521.112 747.8 518.716C746.67 516.319 744.91 514.546 742.877 513.156C740.85 511.773 736.523 509.924 729.608 507.597C724.582 505.837 721.426 504.55 720.406 503.749C718.701 502.393 717.838 500.544 717.838 498.189C717.838 495.779 718.845 493.739 720.618 492.198C722.391 490.658 725.137 489.843 728.752 489.843C735.133 489.843 738.7 493.348 739.447 500.325L747.581 499.038C747.012 494.622 746.061 491.137 744.582 488.768C743.011 486.29 740.789 484.291 738.159 482.989C735.414 481.586 732.21 481.065 728.553 481.065ZM537.701 482.346L556.317 546.322H564.232L582.848 482.346H574.29L563.376 521.502C562.055 526.233 560.891 530.321 560.165 533.696C559.254 529.444 558.385 524.98 557.166 520.646L546.471 482.346H537.701ZM590.119 482.346V546.322H598.465V482.346H590.119ZM315.825 483.202C309.205 483.202 303.878 486.173 299.564 491.972C295.244 497.778 292.93 506.186 292.93 517.223C292.93 527.856 295.066 535.976 299.352 541.611C303.638 547.246 309.342 550.17 316.257 550.17C321.748 550.17 326.232 548.293 329.95 544.822C333.661 541.351 336.229 536.243 337.653 529.417L329.307 528.13C326.876 536.873 322.46 541.166 316.257 541.18C312.292 541.18 308.965 539.482 306.199 535.832C303.433 532.176 301.824 526.754 301.488 519.571H337.858L338.07 516.573C338.07 505.775 335.879 497.456 331.648 491.753C327.417 486.05 322.131 483.202 315.825 483.202ZM221.895 484.701L236.876 548.677H245.646L255.492 499.463L257.204 510.376L265.118 548.677H273.677L288.87 484.701H280.955L272.609 521.714L269.829 534.121L267.261 521.714L259.99 484.701H251.432L243.729 522.146L241.162 535.415L238.163 521.721L230.46 484.708L221.895 484.701ZM754.441 485.345V488.343H762.575V509.74H765.786V488.343H773.92V485.345H754.441ZM777.124 485.345V509.733H780.123V488.98L787.182 509.733H790.181L797.24 489.405V509.733H800.451V485.345H795.96L790.181 502.461C789.599 504.173 789.181 505.412 788.894 506.309L787.607 502.674L781.828 485.345H777.124ZM478.216 489.836C482.372 489.836 485.796 491.849 488.486 495.827C490.335 498.552 491.533 502.701 491.91 508.233H464.311C464.571 502.619 466.159 498.285 468.802 494.964C471.445 491.644 474.485 489.836 478.216 489.836ZM678.915 489.836C683.057 489.836 686.494 491.849 689.185 495.827C691.033 498.552 692.232 502.701 692.608 508.233H665.009C665.269 502.619 666.858 498.285 669.5 494.964C672.136 491.657 675.176 489.836 678.915 489.836ZM315.825 492.191C319.933 492.191 323.234 494.204 325.883 498.182C327.711 500.907 328.93 505.056 329.307 510.589H302.132C302.392 504.974 303.782 500.428 306.411 497.107C309.02 493.793 312.121 492.191 315.825 492.191ZM368.888 492.191C372.599 492.191 375.755 494.252 378.302 498.182C380.849 502.119 381.937 508.185 381.937 516.586C381.937 524.768 380.732 530.869 378.09 534.99C375.447 539.112 372.297 541.193 368.888 541.193C366.382 541.193 364.102 540.351 362.041 538.626C359.973 536.901 358.46 534.429 357.33 531.136C356.201 527.842 355.619 522.776 355.619 516.155C355.619 508.357 357.009 502.516 359.686 498.394C362.363 494.273 365.478 492.191 368.888 492.191Z" fill="black"/>
<path d="M101.968 424.361L70.0893 438.054L99.6125 450.68L133.846 438.054L101.968 424.361ZM54.0406 441.478L52.9725 503.098L99.6125 523.638V459.663L54.0406 441.478ZM149.895 441.478L107.746 457.526V517.86L149.895 500.743V441.478ZM200.177 249.769L168.08 263.463L197.822 276.088L232.056 263.463L200.177 249.769ZM155.674 267.961V329.581L195.467 341.139L196.754 285.078L155.674 267.961ZM244.681 271.384L207.024 287.433V347.985L244.681 330.869V271.384ZM49.4396 336.497L17.5612 350.19L47.0843 362.815L81.318 350.19L49.4396 336.497ZM1.51243 353.613L0.444336 415.234L47.0843 435.774V371.798L1.51243 353.613ZM97.3667 353.613L55.2182 369.662V429.996L97.3667 412.879V353.613ZM152.141 334.224L120.262 347.917L149.785 360.542L184.019 347.917L152.141 334.224ZM104.213 351.34L103.145 412.961L149.785 433.501V369.532L104.213 351.34ZM200.068 351.34L157.919 367.389V427.723L200.068 410.606V351.34ZM300.489 249.769L268.61 263.463L298.134 276.088L332.367 263.463L300.489 249.769ZM252.562 266.886L251.494 328.507L298.134 349.047V285.078L252.562 266.886ZM348.416 266.886L306.267 282.935V343.268L348.416 326.151V266.886Z" fill="#F7A80D"/>
</g>
<defs>
<clipPath id="clip0_1_25">
<rect width="800" height="800" fill="white" transform="translate(0.444336)"/>
</clipPath>
</defs>
</svg>
